<svg width="192" height="192" viewBox="0 0 192 192" xmlns="http://www.w3.org/2000/svg">
  <defs>
    <linearGradient id="bg" x1="0%" y1="0%" x2="100%" y2="100%">
      <stop offset="0%" stop-color="#6366F1"/>
      <stop offset="100%" stop-color="#A855F7"/>
    </linearGradient>
    <linearGradient id="fp" x1="0%" y1="0%" x2="100%" y2="100%">
      <stop offset="0%" stop-color="#ffffff"/>
      <stop offset="100%" stop-color="#e0e7ff"/>
    </linearGradient>
    <linearGradient id="fl" x1="0%" y1="0%" x2="100%" y2="100%">
      <stop offset="0%" stop-color="#34D399"/>
      <stop offset="100%" stop-color="#10B981"/>
    </linearGradient>
  </defs>
  <rect width="192" height="192" rx="42.24" fill="url(#bg)"/>
  <g transform="translate(96, 96)">
    <path d="M0,-30.72 C-11.6736,-30.72 -16.2816,-16.2816 0,-4.608 C16.2816,-16.2816 11.6736,-30.72 0,-30.72 Z" fill="url(#fp)" opacity="0.95"/>
    <path d="M0,30.72 C-11.6736,30.72 -16.2816,16.2816 0,4.608 C16.2816,16.2816 11.6736,30.72 0,30.72 Z" fill="url(#fp)" opacity="0.95"/>
    <path d="M-30.72,0 C-30.72,-11.6736 -16.2816,-16.2816 -4.608,0 C-16.2816,16.2816 -30.72,11.6736 -30.72,0 Z" fill="url(#fp)" opacity="0.8"/>
    <path d="M30.72,0 C30.72,-11.6736 16.2816,-16.2816 4.608,0 C16.2816,16.2816 30.72,11.6736 30.72,0 Z" fill="url(#fp)" opacity="0.8"/>
  </g>
  <circle cx="132.95999999999998" cy="59.040000000000006" r="7.68" fill="url(#fl)"/>
  <circle cx="96" cy="96" r="11.52" fill="#ffffff"/>
  <circle cx="96" cy="96" r="5.76" fill="#6366F1"/>
</svg>