<svg width="512" height="512" viewBox="0 0 512 512" xmlns="http://www.w3.org/2000/svg">
  <defs>
    <linearGradient id="bg" x1="0%" y1="0%" x2="100%" y2="100%">
      <stop offset="0%" stop-color="#6366F1"/>
      <stop offset="100%" stop-color="#A855F7"/>
    </linearGradient>
    <linearGradient id="fp" x1="0%" y1="0%" x2="100%" y2="100%">
      <stop offset="0%" stop-color="#ffffff"/>
      <stop offset="100%" stop-color="#e0e7ff"/>
    </linearGradient>
    <linearGradient id="fl" x1="0%" y1="0%" x2="100%" y2="100%">
      <stop offset="0%" stop-color="#34D399"/>
      <stop offset="100%" stop-color="#10B981"/>
    </linearGradient>
  </defs>
  <rect width="512" height="512" rx="112.64" fill="url(#bg)"/>
  <g transform="translate(256, 256)">
    <path d="M0,-81.92 C-31.1296,-81.92 -43.4176,-43.4176 0,-12.288 C43.4176,-43.4176 31.1296,-81.92 0,-81.92 Z" fill="url(#fp)" opacity="0.95"/>
    <path d="M0,81.92 C-31.1296,81.92 -43.4176,43.4176 0,12.288 C43.4176,43.4176 31.1296,81.92 0,81.92 Z" fill="url(#fp)" opacity="0.95"/>
    <path d="M-81.92,0 C-81.92,-31.1296 -43.4176,-43.4176 -12.288,0 C-43.4176,43.4176 -81.92,31.1296 -81.92,0 Z" fill="url(#fp)" opacity="0.8"/>
    <path d="M81.92,0 C81.92,-31.1296 43.4176,-43.4176 12.288,0 C43.4176,43.4176 81.92,31.1296 81.92,0 Z" fill="url(#fp)" opacity="0.8"/>
  </g>
  <circle cx="354.56" cy="157.44" r="20.48" fill="url(#fl)"/>
  <circle cx="256" cy="256" r="30.72" fill="#ffffff"/>
  <circle cx="256" cy="256" r="15.36" fill="#6366F1"/>
</svg>