<svg width="32" height="32" viewBox="0 0 40 40" xmlns="http://www.w3.org/2000/svg">
  <defs>
    <linearGradient id="fp" x1="0%" y1="0%" x2="100%" y2="100%">
      <stop offset="0%" stop-color="#A855F7"/>
      <stop offset="100%" stop-color="#6366F1"/>
    </linearGradient>
    <linearGradient id="fl" x1="0%" y1="0%" x2="100%" y2="100%">
      <stop offset="0%" stop-color="#34D399"/>
      <stop offset="100%" stop-color="#10B981"/>
    </linearGradient>
  </defs>
  <circle cx="20" cy="20" r="18.5" fill="url(#fp)" opacity="0.12"/>
  <circle cx="20" cy="20" r="18.5" fill="none" stroke="url(#fp)" stroke-width="1.6" opacity="0.9"/>
  <g transform="translate(20, 20)">
    <path d="M0,-13 C-5,-13 -7,-7 0,-2 C7,-7 5,-13 0,-13 Z" fill="url(#fp)" opacity="0.92"/>
    <path d="M0,13 C-5,13 -7,7 0,2 C7,7 5,13 0,13 Z" fill="url(#fp)" opacity="0.92"/>
    <path d="M-13,0 C-13,-5 -7,-7 -2,0 C-7,7 -13,5 -13,0 Z" fill="url(#fp)" opacity="0.78"/>
    <path d="M13,0 C13,-5 7,-7 2,0 C7,7 13,5 13,0 Z" fill="url(#fp)" opacity="0.78"/>
  </g>
  <path d="M29,9 Q34,7 35.5,11 Q32,13 29,9 Z" fill="url(#fl)"/>
  <circle cx="20" cy="20" r="3.2" fill="#ffffff"/>
  <circle cx="20" cy="20" r="1.6" fill="#6366F1"/>
</svg>
